<svg width="32" height="32" viewBox="0 0 32 32" fill="none" xmlns="http://www.w3.org/2000/svg">
<path d="M28.4444 0H3.55556C1.6 0 0.0177778 1.6 0.0177778 3.55556L0 28.4444C0 30.4 1.6 32 3.55556 32H28.4444C30.4 32 32 30.4 32 28.4444V3.55556C32 1.6 30.4 0 28.4444 0ZM24.8889 19.5556H19.5556V24.8889C19.5556 25.8667 18.7556 26.6667 17.7778 26.6667H14.2222C13.2444 26.6667 12.4444 25.8667 12.4444 24.8889V19.5556H7.11111C6.13333 19.5556 5.33333 18.7556 5.33333 17.7778V14.2222C5.33333 13.2444 6.13333 12.4444 7.11111 12.4444H12.4444V7.11111C12.4444 6.13333 13.2444 5.33333 14.2222 5.33333H17.7778C18.7556 5.33333 19.5556 6.13333 19.5556 7.11111V12.4444H24.8889C25.8667 12.4444 26.6667 13.2444 26.6667 14.2222V17.7778C26.6667 18.7556 25.8667 19.5556 24.8889 19.5556Z" fill="white"/>
</svg>
