<svg width="32" height="32" viewBox="0 0 32 32" fill="none" xmlns="http://www.w3.org/2000/svg">
<path fill-rule="evenodd" clip-rule="evenodd" d="M3.2 0H28.8C30.576 0 32 1.78 32 4V28C32 30.22 30.576 32 28.8 32H3.2C1.424 32 0 30.22 0 28L0.016 4C0.016 1.78 1.424 0 3.2 0ZM10.262 6.46828C10.4906 6.23014 10.8007 6.09635 11.124 6.09635H20.8764C21.1997 6.09635 21.5098 6.23014 21.7384 6.46828C21.967 6.70642 22.0954 7.02941 22.0954 7.36619C22.0954 7.70298 21.967 8.02596 21.7384 8.26411C21.5098 8.50225 21.1997 8.63603 20.8764 8.63603H18.4383C18.9911 9.38062 19.3671 10.2509 19.5354 11.1757H20.8764C21.1997 11.1757 21.5098 11.3095 21.7384 11.5476C21.967 11.7858 22.0954 12.1088 22.0954 12.4456C22.0954 12.7823 21.967 13.1053 21.7384 13.3435C21.5098 13.5816 21.1997 13.7154 20.8764 13.7154H19.511C19.2511 15.0659 18.5766 16.2917 17.5892 17.208C16.6019 18.1242 15.3553 18.6811 14.0375 18.7948L19.3038 24.2424C19.4181 24.3604 19.5088 24.5009 19.5706 24.6556C19.6325 24.8103 19.6644 24.9763 19.6644 25.144C19.6644 25.3116 19.6325 25.4776 19.5706 25.6323C19.5088 25.787 19.4181 25.9275 19.3038 26.0455C19.1899 26.1632 19.0548 26.2563 18.9063 26.3195C18.7578 26.3827 18.5987 26.4148 18.4383 26.4138C18.277 26.4131 18.1174 26.3791 17.9689 26.3137C17.8203 26.2483 17.6857 26.1528 17.5728 26.0328L10.2585 18.4138C10.0907 18.2355 9.97713 18.0097 9.9319 17.7646C9.88667 17.5195 9.9118 17.2659 10.0042 17.0355C10.0965 16.8052 10.252 16.6083 10.4512 16.4695C10.6503 16.3307 10.8844 16.2561 11.124 16.2551H13.5621C14.3124 16.2477 15.0424 16 15.6531 15.5457C16.2637 15.0913 16.7253 14.4524 16.9754 13.7154H11.124C10.8007 13.7154 10.4906 13.5816 10.262 13.3435C10.0334 13.1053 9.90495 12.7823 9.90495 12.4456C9.90495 12.1088 10.0334 11.7858 10.262 11.5476C10.4906 11.3095 10.8007 11.1757 11.124 11.1757H17.0729C16.8174 10.4223 16.3408 9.77174 15.7108 9.31597C15.0807 8.8602 14.3291 8.62234 13.5621 8.63603H11.124C10.8007 8.63603 10.4906 8.50225 10.262 8.26411C10.0334 8.02596 9.90495 7.70298 9.90495 7.36619C9.90495 7.02941 10.0334 6.70642 10.262 6.46828Z" fill="white"/>
</svg>
