<svg width="24" height="30" viewBox="0 0 24 30" fill="none" xmlns="http://www.w3.org/2000/svg">
<path d="M11.9798 15.3602C13.496 15.3602 14.7365 14.0363 14.7365 12.4182C14.7365 10.8001 13.496 9.47625 11.9798 9.47625C10.4637 9.47625 9.22317 10.8001 9.22317 12.4182C9.22317 14.0363 10.4637 15.3602 11.9798 15.3602ZM11.9798 0.650391C17.7689 0.650391 23.0066 5.38694 23.0066 12.7124C23.0066 17.3901 19.6296 22.8916 12.8896 29.2315C12.3658 29.7169 11.5801 29.7169 11.0564 29.2315C4.33006 22.8916 0.953125 17.3901 0.953125 12.7124C0.953125 5.38694 6.19082 0.650391 11.9798 0.650391Z" fill="#FF8080"/>
</svg>
