<svg width="32" height="32" viewBox="0 0 32 32" fill="none" xmlns="http://www.w3.org/2000/svg">
<path d="M23.5345 15.1279L26.3252 12.3371L19.6595 5.67139L16.8688 8.46211L9.50979 1.12091C8.12331 -0.265564 5.86585 -0.265564 4.47938 1.12091L1.10207 4.49822C-0.284405 5.88469 -0.284405 8.14215 1.10207 9.52863L8.44327 16.8698L0.26663 25.0642C0.0888767 25.242 0 25.4553 0 25.7042V31.1078C0 31.6056 0.391057 31.9966 0.888765 31.9966H6.29246C6.52354 31.9966 6.75462 31.9077 6.91459 31.73L15.1268 23.5178L22.468 30.859C24.8143 33.2053 27.374 30.9834 27.4984 30.859L30.8757 27.4817C32.2622 26.0952 32.2622 23.8377 30.8757 22.4513L23.5345 15.1279ZM10.9851 14.3457L3.62616 7.00454L6.98569 3.62723L9.24316 5.88469L8.40772 6.75568C7.71448 7.44892 7.71448 8.56876 8.40772 9.262C9.10096 9.95524 10.2208 9.95524 10.914 9.262L11.7673 8.40878L14.3447 10.9862L10.9851 14.3457ZM24.9921 28.3704L17.6509 21.0293L21.0282 17.6519L23.6056 20.2294L22.7524 21.0826C22.0592 21.7758 22.0592 22.8957 22.7524 23.5889C23.4456 24.2821 24.5655 24.2821 25.2587 23.5889L26.1119 22.7357L28.3694 24.9931L24.9921 28.3704Z" fill="white"/>
<path d="M31.4801 7.18218C32.1734 6.48895 32.1734 5.3691 31.4801 4.67586L27.3207 0.516442C26.4853 -0.318997 25.3299 0.000958664 24.8144 0.516442L21.5615 3.76932L28.2273 10.4351L31.4801 7.18218Z" fill="white"/>
</svg>
