<svg width="23" height="24" viewBox="0 0 23 24" fill="none" xmlns="http://www.w3.org/2000/svg">
<path d="M16.2133 4.8V12C16.2133 13.32 17.2738 14.4 18.5699 14.4H19.7482V22.8C19.7482 23.46 20.2785 24 20.9265 24C21.5746 24 22.1048 23.46 22.1048 22.8V1.356C22.1048 0.576 21.3861 1.07288e-07 20.6437 0.18C18.0986 0.816 16.2133 3.012 16.2133 4.8ZM10.3219 8.4H7.96528V1.2C7.96528 0.54 7.43504 0 6.78698 0C6.13892 0 5.60869 0.54 5.60869 1.2V8.4H3.2521V1.2C3.2521 0.54 2.72186 0 2.0738 0C1.42574 0 0.895508 0.54 0.895508 1.2V8.4C0.895508 11.052 3.00466 13.2 5.60869 13.2V22.8C5.60869 23.46 6.13892 24 6.78698 24C7.43504 24 7.96528 23.46 7.96528 22.8V13.2C10.5693 13.2 12.6785 11.052 12.6785 8.4V1.2C12.6785 0.54 12.1482 0 11.5002 0C10.8521 0 10.3219 0.54 10.3219 1.2V8.4Z" fill="white"/>
</svg>
