<svg width="18" height="24" viewBox="0 0 18 24" fill="none" xmlns="http://www.w3.org/2000/svg">
<path fill-rule="evenodd" clip-rule="evenodd" d="M2.60938 3.03497C2.74466 2.72471 3.00779 2.52006 3.2427 2.29927C4.60026 1.02334 6.19889 0.256045 8.05735 0.0502117C8.10341 0.0451263 8.1584 0.0567288 8.18533 0C8.71144 0 9.23749 0 9.7636 0C10.1051 0.10857 10.4674 0.105756 10.8123 0.195366C11.0405 0.254663 11.2796 0.277423 11.4914 0.393201C10.9772 1.01475 10.4671 1.63985 9.94771 2.25711C9.11838 3.24278 8.27658 4.21798 7.45529 5.21026C7.29342 5.40578 7.07187 5.56797 7.00686 5.83635C6.99212 5.85112 6.97732 5.86588 6.96257 5.88059C6.89402 5.8724 6.85683 5.90192 6.85323 5.97178C6.7393 6.07912 6.65437 6.2181 6.50715 6.289C5.97359 5.84322 5.44014 5.39724 4.90639 4.9517C4.14078 4.31267 3.37508 3.67385 2.60938 3.03497Z" fill="#1B73E7"/>
<path fill-rule="evenodd" clip-rule="evenodd" d="M16.4152 4.53711C16.79 5.15476 17.0064 5.83461 17.1488 6.53397C17.6832 9.16004 17.1801 11.5907 15.7392 13.838C14.961 15.0518 14.0331 16.1518 13.1355 17.2745C12.2571 18.3731 11.4141 19.4946 10.7625 20.7481C10.3706 21.5022 10.1196 22.3099 9.85559 23.113C9.81466 23.2376 9.7677 23.3609 9.71434 23.4806C9.56845 23.8078 9.33896 24.0106 8.95569 23.9987C8.58894 23.9872 8.38672 23.7728 8.2723 23.4564C8.08804 22.9469 7.91734 22.4324 7.73648 21.9216C7.2954 20.6754 6.56738 19.5919 5.81016 18.5252C5.63033 18.2719 5.44849 18.02 5.26758 17.7674C5.32706 17.6994 5.38772 17.6324 5.44587 17.5634C7.04096 15.6699 8.63915 13.7791 10.2277 11.8802C10.5369 11.5106 10.878 11.1658 11.1409 10.7588C11.3413 10.5639 11.5212 10.3506 11.6866 10.1248C11.7322 10.1004 11.7726 10.0713 11.7839 10.0161L11.7792 10.0206C11.8338 10.0068 11.8385 9.96619 11.8328 9.92013L11.8272 9.92116C11.9602 9.87633 12.0284 9.7568 12.1105 9.65984C12.5963 9.08603 13.0754 8.50655 13.5569 7.92909C14.1274 7.24508 14.696 6.5595 15.2693 5.87786C15.6477 5.42803 16.033 4.98388 16.4152 4.53711Z" fill="#35A853"/>
<path fill-rule="evenodd" clip-rule="evenodd" d="M11.1419 10.7599C10.8786 11.1673 10.5375 11.512 10.2283 11.8817C8.63977 13.7806 7.04158 15.6714 5.4465 17.5648C5.38835 17.6339 5.32769 17.7009 5.2682 17.7689C4.86259 17.2654 4.45565 16.7629 4.05166 16.2582C3.26701 15.2779 2.4908 14.2913 1.87923 13.1883C1.7284 12.9163 1.57255 12.6463 1.4707 12.3502C2.09022 11.61 2.70925 10.8695 3.32926 10.1297C4.0018 9.32726 4.66555 8.51721 5.35299 7.72775C5.62548 7.41478 5.84738 7.05367 6.1871 6.80078C5.92984 7.34067 5.78632 7.90183 5.79875 8.50783C5.83988 10.5168 7.9299 12.034 9.84907 11.4473C10.3282 11.3008 10.7422 11.0478 11.1419 10.7599Z" fill="#FBBB06"/>
<path fill-rule="evenodd" clip-rule="evenodd" d="M16.4161 4.53914C16.0339 4.98591 15.6486 5.43007 15.2702 5.88004C14.6969 6.56168 14.1284 7.24721 13.5579 7.93127C13.0763 8.50868 12.5972 9.08821 12.1114 9.66202C12.0293 9.75898 11.9611 9.87851 11.8282 9.92334C11.8086 9.80001 11.8891 9.70764 11.9305 9.60445C12.2636 8.7741 12.2771 7.94514 11.929 7.11574C11.3669 5.77641 9.88859 4.97401 8.46578 5.22004C7.92774 5.31305 7.46378 5.561 7.00781 5.83768C7.07282 5.56929 7.29442 5.40711 7.45624 5.21159C8.27753 4.21926 9.11933 3.24406 9.94866 2.25844C10.468 1.64118 10.9781 1.01608 11.4924 0.394531C12.1456 0.546499 12.7367 0.845399 13.3076 1.1836C14.6526 1.98052 15.6708 3.09031 16.4032 4.4678C16.4139 4.48814 16.4121 4.51525 16.4161 4.53914Z" fill="#4285F3"/>
<path fill-rule="evenodd" clip-rule="evenodd" d="M6.18661 6.80039C5.84689 7.05327 5.62499 7.41443 5.3525 7.72736C4.66506 8.51682 4.0013 9.32687 3.32877 10.1293C2.70875 10.869 2.08973 11.6096 1.47021 12.3498C1.13039 11.671 0.94243 10.9442 0.806995 10.2031C0.507815 8.56619 0.598122 6.9566 1.19234 5.39204C1.50853 4.55948 1.9394 3.78922 2.51645 3.1062C2.54106 3.07702 2.57825 3.05856 2.60962 3.03516C3.37528 3.67403 4.14103 4.31286 4.90654 4.95189C5.44029 5.39743 5.97374 5.84341 6.50729 6.28914C6.47454 6.50618 6.25857 6.60799 6.18661 6.80039Z" fill="#E94335"/>
</svg>
