<svg width="136" height="44" viewBox="0 0 136 44" fill="none" xmlns="http://www.w3.org/2000/svg">
<path d="M37.7534 43.1141C53.2838 42.8806 66.819 34.4254 74.1958 21.9035C66.819 9.38156 53.2838 0.925394 37.7534 0.691931C37.5364 0.685788 37.3172 0.682007 37.0979 0.682007C36.8791 0.682007 36.6598 0.68626 36.4424 0.691931C20.9124 0.925394 7.37629 9.38156 0 21.9035C7.37629 34.4254 20.9124 42.8806 36.4424 43.1141C36.6598 43.1207 36.8791 43.124 37.0979 43.124C37.3172 43.124 37.5364 43.1207 37.7534 43.1141ZM27.8553 21.7664C27.8553 16.6619 31.9943 12.5234 37.0984 12.5234C42.2029 12.5234 46.3414 16.6619 46.3414 21.7664C46.3414 26.8714 42.2029 31.0099 37.0984 31.0099C31.9943 31.0099 27.8553 26.8714 27.8553 21.7664ZM58.3194 21.9035C58.3194 17.2375 56.8127 12.9241 54.2602 9.42032C54.9852 9.78374 55.7007 10.1699 56.403 10.5801C61.2542 13.4142 65.4371 17.2957 68.6323 21.9035C65.4371 26.5103 61.2542 30.3918 56.403 33.2259C55.7007 33.6366 54.9852 34.0227 54.2602 34.3857C56.8122 30.8823 58.3194 26.5694 58.3194 21.9035Z" fill="#2FC8AD"/>
<path d="M82.7199 8.75631C82.907 8.75631 83.0738 8.81964 83.2189 8.94582C83.364 9.072 83.4368 9.27144 83.4368 9.54366C83.4368 9.81587 83.364 10.0148 83.2189 10.1415C83.0738 10.2681 82.907 10.331 82.7199 10.331C82.5134 10.331 82.3404 10.2677 82.1995 10.1415C82.0592 10.0148 81.9888 9.81587 81.9888 9.54366C81.9888 9.27144 82.0592 9.07248 82.1995 8.94582C82.3404 8.81917 82.5134 8.75631 82.7199 8.75631ZM83.3243 11.5824V19.1194H82.0871V11.5824H83.3243Z" fill="#2FC8AD"/>
<path d="M89.3435 11.4416C90.2433 11.4416 90.9229 11.6623 91.3822 12.1023C91.8416 12.5432 92.0713 13.2465 92.0713 14.2115V19.1194H90.8482V14.2961C90.8482 13.0867 90.2858 12.4823 89.1606 12.4823C88.326 12.4823 87.7499 12.7167 87.4309 13.185C87.1119 13.6538 86.9526 14.3292 86.9526 15.2101V19.1189H85.7153V11.5824H86.7135L86.8963 12.6089H86.9668C87.2106 12.2152 87.5481 11.9222 87.9795 11.7304C88.4105 11.538 88.8652 11.4416 89.3435 11.4416Z" fill="#2FC8AD"/>
<path d="M97.4286 19.2602C96.7538 19.2602 96.1583 19.1241 95.6427 18.8524C95.1271 18.5806 94.7216 18.1586 94.4262 17.5868C94.1309 17.0149 93.9834 16.2838 93.9834 15.393C93.9834 14.4648 94.1356 13.7101 94.4404 13.1288C94.7452 12.548 95.1644 12.1212 95.6989 11.8495C96.2334 11.5777 96.8379 11.4416 97.5127 11.4416C97.8875 11.4416 98.2557 11.4818 98.6163 11.5612C98.9773 11.641 99.2703 11.737 99.4953 11.8495L99.1158 12.8759C98.8908 12.7913 98.6281 12.7119 98.328 12.6368C98.0279 12.5621 97.7467 12.5243 97.4844 12.5243C96.0033 12.5243 95.2627 13.4761 95.2627 15.3788C95.2627 16.2886 95.4432 16.9842 95.8043 17.4672C96.1649 17.9497 96.7018 18.1912 97.4145 18.1912C97.8176 18.1912 98.1786 18.1492 98.4972 18.0646C98.8157 17.98 99.1068 17.8774 99.3691 17.7555V18.8519C99.1158 18.9833 98.837 19.084 98.5321 19.1544C98.2278 19.2253 97.8596 19.2602 97.4286 19.2602Z" fill="#2FC8AD"/>
<path d="M102.392 19.1194H101.155V8.43259H102.392V19.1194Z" fill="#2FC8AD"/>
<path d="M111.083 11.5824V19.1194H110.07L109.887 18.1213H109.831C109.587 18.515 109.25 18.8028 108.819 18.9861C108.387 19.169 107.928 19.2602 107.44 19.2602C106.531 19.2602 105.846 19.0419 105.388 18.6062C104.928 18.17 104.698 17.4738 104.698 16.5178V11.5824H105.95V16.4336C105.95 17.634 106.508 18.2338 107.623 18.2338C108.458 18.2338 109.036 17.9998 109.36 17.531C109.683 17.0627 109.845 16.3873 109.845 15.5064V11.5829H111.083V11.5824Z" fill="#2FC8AD"/>
<path d="M117.101 11.4416C118.001 11.4416 118.68 11.6623 119.14 12.1023C119.599 12.5432 119.829 13.2465 119.829 14.2115V19.1194H118.606V14.2961C118.606 13.0867 118.043 12.4823 116.918 12.4823C116.083 12.4823 115.507 12.7167 115.188 13.185C114.869 13.6538 114.71 14.3292 114.71 15.2101V19.1189H113.473V11.5824H114.471L114.654 12.6089H114.724C114.968 12.2152 115.306 11.9222 115.737 11.7304C116.168 11.538 116.623 11.4416 117.101 11.4416Z" fill="#2FC8AD"/>
<path d="M125.018 11.4563C125.937 11.4563 126.616 11.6581 127.057 12.0607C127.497 12.4638 127.717 13.1061 127.717 13.987V19.1194H126.818L126.578 18.0504H126.522C126.194 18.463 125.847 18.7678 125.482 18.9649C125.116 19.1615 124.619 19.2602 123.991 19.2602C123.307 19.2602 122.739 19.0797 122.289 18.7186C121.839 18.3576 121.614 17.7928 121.614 17.0239C121.614 16.2739 121.91 15.695 122.5 15.2871C123.091 14.8797 124 14.6567 125.228 14.6193L126.508 14.5778V14.1278C126.508 13.4998 126.372 13.0636 126.101 12.8197C125.828 12.5758 125.444 12.4544 124.947 12.4544C124.554 12.4544 124.179 12.513 123.823 12.6302C123.466 12.7474 123.134 12.8807 122.825 13.0309L122.445 12.1028C122.773 11.9246 123.162 11.7724 123.612 11.6458C124.062 11.5191 124.53 11.4563 125.018 11.4563ZM126.494 15.435L125.383 15.4776C124.446 15.5149 123.797 15.6647 123.436 15.9275C123.075 16.1903 122.894 16.5603 122.894 17.0386C122.894 17.4606 123.023 17.7697 123.281 17.9667C123.538 18.1633 123.869 18.2616 124.272 18.2616C124.9 18.2616 125.428 18.0863 125.854 17.7347C126.281 17.3831 126.494 16.8415 126.494 16.1104V15.435Z" fill="#2FC8AD"/>
<path d="M131.711 19.1194L128.857 11.5824H130.179L131.782 16.0258C131.857 16.2323 131.936 16.4615 132.021 16.7148C132.105 16.9677 132.18 17.212 132.246 17.4459C132.311 17.6804 132.358 17.8727 132.386 18.0225H132.442C132.471 17.8732 132.522 17.678 132.597 17.4393C132.672 17.2007 132.752 16.9568 132.836 16.7082C132.921 16.4601 133 16.2323 133.075 16.0263L134.678 11.5829H136L133.131 19.1199H131.711V19.1194Z" fill="#2FC8AD"/>
<path d="M86.2776 28.1748C86.3806 28.1748 86.5025 28.18 86.6429 28.189C86.7837 28.1985 86.8962 28.2126 86.9803 28.2311L86.8258 30.1999C86.7507 30.181 86.6519 30.1649 86.5304 30.1508C86.4085 30.1371 86.3007 30.13 86.2067 30.13C85.8503 30.13 85.5082 30.1933 85.1802 30.3195C84.8518 30.4461 84.5871 30.6498 84.3858 30.931C84.184 31.2127 84.0833 31.5969 84.0833 32.0842V35.993H81.9888V28.3157H83.5776L83.8872 29.6092H83.9855C84.2104 29.2155 84.52 28.8781 84.9137 28.5964C85.3073 28.3157 85.7615 28.1748 86.2776 28.1748Z" fill="#2FC8AD"/>
<path d="M95.066 32.1409C95.066 33.4155 94.7309 34.3999 94.0608 35.0936C93.3906 35.7874 92.479 36.1343 91.3259 36.1343C90.6132 36.1343 89.978 35.9798 89.4203 35.6702C88.8622 35.3611 88.4241 34.9089 88.1056 34.3134C87.7866 33.7179 87.6273 32.9939 87.6273 32.1409C87.6273 30.8658 87.96 29.8861 88.6259 29.2018C89.2913 28.5175 90.2053 28.1748 91.3679 28.1748C92.0896 28.1748 92.7271 28.3298 93.28 28.6389C93.833 28.948 94.2692 29.3979 94.5877 29.9887C94.9062 30.5794 95.066 31.2968 95.066 32.1409ZM89.7649 32.1409C89.7649 32.8999 89.8892 33.4741 90.1377 33.8635C90.3859 34.2524 90.7914 34.4467 91.3542 34.4467C91.9072 34.4467 92.3079 34.2524 92.5565 33.8635C92.8046 33.4745 92.9294 32.9003 92.9294 32.1409C92.9294 31.3814 92.8051 30.8114 92.5565 30.4324C92.3079 30.0525 91.9024 29.8629 91.34 29.8629C90.7866 29.8629 90.3859 30.0525 90.1377 30.4324C89.8892 30.8119 89.7649 31.3814 89.7649 32.1409Z" fill="#2FC8AD"/>
<path d="M103.841 28.3157V35.9935H102.238L101.956 35.009H101.844C101.6 35.4027 101.265 35.6886 100.839 35.8668C100.412 36.0445 99.9598 36.1338 99.4815 36.1338C98.6563 36.1338 97.9957 35.9108 97.499 35.4656C97.0018 35.0209 96.7537 34.3058 96.7537 33.3214V28.3157H98.8492V32.8015C98.8492 33.3545 98.9475 33.7694 99.1445 34.0459C99.3416 34.3224 99.6554 34.4608 100.086 34.4608C100.724 34.4608 101.16 34.243 101.395 33.8068C101.629 33.371 101.746 32.7453 101.746 31.9296V28.3157H103.841Z" fill="#2FC8AD"/>
<path d="M109.269 34.4608C109.503 34.4608 109.728 34.4396 109.943 34.3975C110.159 34.355 110.374 34.2968 110.59 34.2217V35.7827C110.365 35.8862 110.087 35.9703 109.753 36.0355C109.421 36.1012 109.057 36.1343 108.664 36.1343C108.204 36.1343 107.794 36.0592 107.433 35.9089C107.072 35.7595 106.786 35.5015 106.575 35.1352C106.364 34.7699 106.259 34.2543 106.259 33.5889V29.8908H105.261V29.0047L106.414 28.302L107.019 26.6847H108.355V28.3157H110.506V29.8908H108.355V33.5889C108.355 33.8795 108.439 34.0974 108.608 34.243C108.777 34.3885 108.997 34.4608 109.269 34.4608Z" fill="#2FC8AD"/>
<path d="M115.301 28.1748C116.36 28.1748 117.2 28.4773 117.818 29.0822C118.437 29.6867 118.746 30.5473 118.746 31.6626V32.6749H113.796C113.815 33.2656 113.991 33.7297 114.324 34.0672C114.657 34.4046 115.118 34.5733 115.709 34.5733C116.196 34.5733 116.644 34.5242 117.052 34.4254C117.46 34.3266 117.879 34.1749 118.311 33.9684V35.5851C117.926 35.7728 117.528 35.9108 117.116 36.0001C116.703 36.0889 116.202 36.1338 115.611 36.1338C114.842 36.1338 114.162 35.9906 113.572 35.7047C112.981 35.4193 112.517 34.9873 112.18 34.4112C111.842 33.8347 111.674 33.1017 111.674 32.2108C111.674 31.32 111.826 30.5752 112.131 29.975C112.435 29.3752 112.859 28.9253 113.403 28.6252C113.946 28.3256 114.579 28.1748 115.301 28.1748ZM115.315 29.6659C114.903 29.6659 114.565 29.7973 114.303 30.0595C114.04 30.3223 113.885 30.7302 113.839 31.2831H116.778C116.768 30.8237 116.644 30.4395 116.405 30.1304C116.166 29.8204 115.803 29.6659 115.315 29.6659Z" fill="#2FC8AD"/>
<path d="M125.805 33.7156C125.805 34.4934 125.531 35.0913 124.982 35.5086C124.434 35.9259 123.616 36.1343 122.529 36.1343C121.994 36.1343 121.535 36.0993 121.15 36.0284C120.766 35.9585 120.382 35.8432 119.997 35.6839V33.9542C120.41 34.1418 120.855 34.2968 121.333 34.4183C121.812 34.5398 122.233 34.6012 122.599 34.6012C123.002 34.6012 123.292 34.5402 123.471 34.4183C123.649 34.2964 123.738 34.1366 123.738 33.94C123.738 33.8087 123.703 33.6919 123.633 33.5884C123.563 33.4854 123.41 33.3682 123.176 33.2368C122.941 33.1059 122.575 32.9367 122.079 32.7307C121.591 32.5246 121.195 32.3209 120.891 32.1191C120.586 31.9173 120.358 31.6739 120.209 31.3875C120.059 31.1021 119.984 30.7434 119.984 30.3124C119.984 29.5997 120.26 29.0652 120.813 28.7089C121.366 28.3525 122.102 28.1744 123.021 28.1744C123.499 28.1744 123.954 28.2216 124.385 28.3152C124.816 28.4088 125.261 28.5638 125.721 28.7793L125.088 30.284C124.713 30.1248 124.357 29.991 124.02 29.8828C123.682 29.775 123.34 29.7212 122.993 29.7212C122.375 29.7212 122.065 29.8899 122.065 30.2273C122.065 30.3492 122.105 30.4594 122.185 30.5577C122.264 30.656 122.419 30.7618 122.649 30.8738C122.878 30.9863 123.218 31.1366 123.668 31.3237C124.108 31.5019 124.488 31.6876 124.807 31.8795C125.125 32.0714 125.372 32.3134 125.545 32.6035C125.718 32.8956 125.805 33.2656 125.805 33.7156Z" fill="#2FC8AD"/>
</svg>
