<svg width="32" height="24" viewBox="0 0 32 24" fill="none" xmlns="http://www.w3.org/2000/svg">
<path d="M8.72727 12.7559C11.1418 12.7559 13.0909 10.731 13.0909 8.22255C13.0909 5.7141 11.1418 3.68921 8.72727 3.68921C6.31273 3.68921 4.36364 5.7141 4.36364 8.22255C4.36364 10.731 6.31273 12.7559 8.72727 12.7559ZM26.1818 3.68921H17.4545C15.8545 3.68921 14.5455 5.04921 14.5455 6.71144V14.267H2.90909V2.1781C2.90909 1.34699 2.25455 0.666992 1.45455 0.666992C0.654545 0.666992 0 1.34699 0 2.1781V21.8225C0 22.6537 0.654545 23.3337 1.45455 23.3337C2.25455 23.3337 2.90909 22.6537 2.90909 21.8225V18.8003H29.0909V21.8225C29.0909 22.6537 29.7455 23.3337 30.5455 23.3337C31.3455 23.3337 32 22.6537 32 21.8225V9.73366C32 6.3941 29.3964 3.68921 26.1818 3.68921Z" fill="white"/>
</svg>
