<svg width="32" height="20" viewBox="0 0 32 20" fill="none" xmlns="http://www.w3.org/2000/svg">
<path d="M16.2982 19.6517C21.6779 19.5708 26.5312 17.3204 30.022 13.7354C32.0503 11.6523 32.0503 8.34809 30.022 6.26496C26.5312 2.67984 21.6779 0.429164 16.2982 0.348266C16.1995 0.34547 16.0997 0.34375 16 0.34375C15.9005 0.34375 15.8007 0.345685 15.7018 0.348266C10.3222 0.429329 5.46856 2.67999 1.97778 6.26516C-0.050406 8.34819 -0.0504119 11.6522 1.97779 13.7352C5.46858 17.3203 10.3222 19.5708 15.7018 19.6517C15.8007 19.6547 15.9005 19.6562 16 19.6562C16.0997 19.6564 16.1995 19.6547 16.2982 19.6517ZM11.7955 9.93784C11.7955 7.61512 13.6783 5.73196 16 5.73196C18.3219 5.73196 20.2045 7.61512 20.2045 9.93784C20.2045 12.2608 18.3219 14.1439 16 14.1439C13.6783 14.1439 11.7955 12.2608 11.7955 9.93784ZM25.653 10.0002C25.653 8.27399 25.1999 6.65382 24.4065 5.25146C24.2675 5.0058 24.5375 4.70529 24.7812 4.84769C25.3857 5.20096 25.9674 5.58999 26.5233 6.01177C29.1807 8.02816 29.1805 11.9721 26.523 13.9884C25.9672 14.4101 25.3856 14.7991 24.7812 15.1523C24.5374 15.2949 24.2675 14.9944 24.4066 14.7486C25.1999 13.3464 25.653 11.7264 25.653 10.0002Z" fill="#2FC8AD"/>
</svg>
