<svg width="24" height="24" viewBox="0 0 24 24" fill="none" xmlns="http://www.w3.org/2000/svg">
<path d="M23.2674 24H0.732632C0.328421 24 0 23.6526 0 23.2249V0.775055C0 0.347439 0.328421 0 0.732632 0H23.2674C23.6716 0 24 0.347439 24 0.775055V23.2249C24 23.6526 23.6716 24 23.2674 24ZM12.5053 1.55011H1.46526V22.4499H12.5053V1.55011ZM19.9326 13.1908H18.8716V8.54102C18.8716 8.16686 18.5937 7.87287 18.24 7.87287C17.8863 7.87287 17.6084 8.16686 17.6084 8.54102V13.1908H16.5474C16.2189 13.1908 16.0168 13.5916 16.1937 13.8856L17.8863 16.5048C18.0379 16.772 18.3916 16.772 18.5684 16.5048L20.2611 13.8856C20.4884 13.5916 20.2863 13.1908 19.9326 13.1908Z" fill="white"/>
</svg>
