<svg width="18" height="24" viewBox="0 0 18 24" fill="none" xmlns="http://www.w3.org/2000/svg">
<path fill-rule="evenodd" clip-rule="evenodd" d="M16.6863 5.05297C16.9868 5.3535 17.4741 5.3535 17.7746 5.05297C18.0751 4.75243 18.0751 4.26517 17.7746 3.96464C12.9285 -0.881441 5.07148 -0.881441 0.225401 3.96464C-0.0751335 4.26517 -0.0751335 4.75243 0.225401 5.05297C0.525935 5.3535 1.0132 5.3535 1.31373 5.05297C5.55874 0.807956 12.4413 0.807956 16.6863 5.05297ZM15.5246 7.7963C15.2241 8.09683 14.7368 8.09683 14.4363 7.7963C11.4338 4.79384 6.56586 4.79384 3.5634 7.7963C3.26287 8.09683 2.7756 8.09683 2.47507 7.7963C2.17454 7.49576 2.17454 7.0085 2.47507 6.70797C6.0786 3.10444 11.9211 3.10444 15.5246 6.70797C15.8251 7.0085 15.8251 7.49576 15.5246 7.7963ZM8.99994 15.7225C9.84646 15.7225 10.5391 14.9833 10.5391 14.0799C10.5391 13.1765 9.84646 12.4373 8.99994 12.4373C8.15342 12.4373 7.46081 13.1765 7.46081 14.0799C7.46081 14.9833 8.15342 15.7225 8.99994 15.7225ZM8.99994 7.50962C12.2321 7.50962 15.1565 10.1542 15.1565 14.2442C15.1565 16.8559 13.271 19.9275 9.50785 23.4672C9.21542 23.7382 8.77677 23.7382 8.48433 23.4672C4.72886 19.9275 2.84342 16.8559 2.84342 14.2442C2.84342 10.1542 5.76777 7.50962 8.99994 7.50962Z" fill="white"/>
</svg>
