<svg width="24" height="24" viewBox="0 0 24 24" fill="none" xmlns="http://www.w3.org/2000/svg">
<path fill-rule="evenodd" clip-rule="evenodd" d="M12 24C18.6274 24 24 18.6274 24 12C24 5.37258 18.6274 0 12 0C5.37258 0 0 5.37258 0 12C0 18.6274 5.37258 24 12 24ZM18.595 17.7001L12.8623 3.58612C12.5453 2.80463 11.4454 2.80463 11.1378 3.58612L5.405 17.7001C5.08807 18.4816 5.8804 19.2537 6.64477 18.9147L11.6225 16.6926C11.8648 16.5891 12.1352 16.5891 12.3775 16.6926L17.3553 18.9147C18.1196 19.2631 18.912 18.4816 18.595 17.7001Z" fill="white"/>
</svg>
