<svg width="48" height="48" viewBox="0 0 48 48" fill="none" xmlns="http://www.w3.org/2000/svg">
<path fill-rule="evenodd" clip-rule="evenodd" d="M24 48C37.2548 48 48 37.2548 48 24C48 10.7452 37.2548 0 24 0C10.7452 0 0 10.7452 0 24C0 37.2548 10.7452 48 24 48ZM37.1903 35.4002L25.7248 7.17224C25.0909 5.60925 22.8911 5.60925 22.2758 7.17224L10.8103 35.4002C10.1764 36.9632 11.7611 38.5074 13.2898 37.8295L23.2453 33.3853C23.73 33.1781 24.2706 33.1781 24.7554 33.3853L34.7108 37.8295C36.2395 38.5262 37.8242 36.9632 37.1903 35.4002Z" fill="white"/>
</svg>
