<svg width="32" height="32" viewBox="0 0 32 32" fill="none" xmlns="http://www.w3.org/2000/svg">
<path fill-rule="evenodd" clip-rule="evenodd" d="M16 32C24.8366 32 32 24.8366 32 16C32 7.16344 24.8366 0 16 0C7.16344 0 0 7.16344 0 16C0 24.8366 7.16344 32 16 32ZM24.7934 23.6002L17.1497 4.7815C16.7271 3.7395 15.2605 3.7395 14.8504 4.7815L7.20671 23.6002C6.78413 24.6421 7.84058 25.6716 8.85974 25.2196L15.4967 22.2569C15.8198 22.1188 16.1803 22.1188 16.5034 22.2569L23.1404 25.2196C24.1595 25.6841 25.216 24.6421 24.7934 23.6002Z" fill="#16171C"/>
</svg>
