<svg width="24" height="28" viewBox="0 0 24 28" fill="none" xmlns="http://www.w3.org/2000/svg">
<path d="M12 12.8783C10.005 12.8783 6 13.8316 6 15.7241V15.9518C7.455 17.5455 9.6 18.57 12 18.57C14.4 18.57 16.545 17.5455 18 15.9518V15.7241C18 13.8316 13.995 12.8783 12 12.8783ZM12 11.4553C13.65 11.4553 15 10.1747 15 8.60942C15 7.04418 13.65 5.76353 12 5.76353C10.35 5.76353 9 7.04418 9 8.60942C9 10.1747 10.35 11.4553 12 11.4553ZM12 0.0717468C18.3 0.0717468 24 4.65363 24 11.7399C24 16.2649 20.325 21.5867 12.99 27.7196C12.99 27.7196 11.565 28.1891 10.995 27.7196C3.675 21.5867 0 16.2649 0 11.7399C0 4.65363 5.7 0.0717468 12 0.0717468Z" fill="white"/>
</svg>
