<svg width="24" height="24" viewBox="0 0 24 24" fill="none" xmlns="http://www.w3.org/2000/svg">
<path fill-rule="evenodd" clip-rule="evenodd" d="M24 10.0465C24 10.3862 23.736 10.6532 23.4 10.6532H21.6V21.5733H22.8C23.46 21.5733 24 22.1193 24 22.7867C24 23.454 23.46 24 22.8 24H1.2C0.54 24 0 23.454 0 22.7867C0 22.1193 0.54 21.5733 1.2 21.5733H2.4V10.6532H0.6C0.264 10.6532 0 10.3862 0 10.0465V8.54196C0 8.34783 0.0960001 8.15369 0.252 8.04449L11.304 0.218402C11.724 -0.0728008 12.276 -0.0728008 12.684 0.218402L23.748 8.04449C23.904 8.15369 24 8.34783 24 8.54196V10.0465ZM15.0913 9.94929C14.4949 9.38284 13.5436 9.09961 12.2373 9.09961H10C9.44772 9.09961 9 9.54732 9 10.0996V18.2108C9 18.7631 9.44771 19.2108 10 19.2108H10.144C10.6963 19.2108 11.144 18.7631 11.144 18.2108V15.6138H12.0669C13.0514 15.6138 13.8276 15.4581 14.3955 15.1465C14.973 14.835 15.3847 14.4243 15.6308 13.9145C15.8769 13.4047 16 12.8524 16 12.2576C16 11.2757 15.6971 10.5063 15.0913 9.94929ZM11.644 10.8556H12.1237C13.2596 10.8556 13.8276 11.3465 13.8276 12.3284C13.8276 12.8665 13.6477 13.2583 13.288 13.5038C12.9378 13.7398 12.4598 13.8578 11.854 13.8578H11.644C11.3679 13.8578 11.144 13.634 11.144 13.3578V11.3556C11.144 11.0795 11.3679 10.8556 11.644 10.8556Z" fill="white"/>
</svg>
