<svg width="48" height="24" viewBox="0 0 48 24" fill="none" xmlns="http://www.w3.org/2000/svg">
<path fill-rule="evenodd" clip-rule="evenodd" d="M6.46964 15.8527C4.42793 16.5333 3.05078 18.4439 3.05078 20.5961V20.8748H20.7373V20.5961C20.7373 18.4439 19.3601 16.5333 17.3184 15.8527L16.1372 15.4589C15.7636 15.3344 15.4422 15.0889 15.2237 14.7612C14.8953 14.2686 14.3423 13.9727 13.7502 13.9727H10.0378C9.44572 13.9727 8.8928 14.2686 8.56436 14.7612C8.34592 15.0889 8.02449 15.3344 7.65089 15.4589L6.46964 15.8527Z" fill="white"/>
<path fill-rule="evenodd" clip-rule="evenodd" d="M11.8914 3C14.3565 3 16.3617 3.4806 16.4196 4.07881H16.4217L15.559 6.2357H15.5374L15.5375 6.23582H8.247L8.2471 6.2357H8.22555L7.36279 4.07881H7.36321C7.42109 3.4806 9.42627 3 11.8914 3ZM11.8952 7.96005C13.8974 7.96005 15.5248 7.20488 15.5613 6.26678C16.1026 6.97752 16.4217 7.85166 16.4217 8.7968C16.4217 11.1792 14.3938 13.1106 11.8923 13.1106C9.39071 13.1106 7.36279 11.1792 7.36279 8.7968C7.36279 7.84836 7.68418 6.97141 8.22889 6.25934C8.25708 7.20088 9.88776 7.96005 11.8952 7.96005ZM11.813 10.125L10.5005 10.9821L10.7192 11.625L11.813 10.9821L12.9067 11.625L13.1255 10.9821L11.813 10.125Z" fill="white"/>
<path d="M33.1406 21.5722C33.1406 21.7915 33.4364 21.9709 33.7985 21.9709H40.1153C40.4774 21.9709 40.7732 21.7915 40.7732 21.5722V19.1465H33.1406V21.5722Z" fill="white"/>
<path d="M42.3211 4.87758C42.3211 4.87758 42.6095 4.16728 41.4918 3.93442C40.7809 3.78633 39.5666 3.51977 38.0778 3.28594C39.5666 3.09031 40.7661 2.9126 41.4029 2.77932C42.0397 2.64604 41.8326 2 41.8326 2L37.9017 2.41203V2H36.0143V2.41203H35.6555V2.78087C34.9311 2.81409 33.3461 3.0334 32.1133 4.22962C31.0002 5.30955 30.4652 6.89121 30.5217 8.93144L30.5184 13.9988H30V22.0267H32.0602V13.9988H31.5617V8.92479V8.90818C31.5185 7.17366 31.9405 5.85449 32.8311 4.98723C33.788 4.05684 35.0607 3.86411 35.6555 3.82756V4.06016H36.0143V4.59181C34.3629 5.00717 33.1434 6.50577 33.1434 8.29013V14.0951V17.9097H40.7793V14.0951V8.29013C40.7793 6.50577 39.5598 5.00717 37.905 4.58849V4.09339L42.3211 4.87758ZM36.5593 2.78751C36.6689 2.70112 36.8085 2.65128 36.9613 2.65128C37.3169 2.65128 37.6093 2.94036 37.6093 3.29923C37.6093 3.6581 37.3202 3.94718 36.9613 3.94718C36.8085 3.94718 36.6689 3.89402 36.5593 3.80762C36.4098 3.69132 36.3101 3.50524 36.3101 3.29923C36.3101 3.08989 36.4098 2.90381 36.5593 2.78751Z" fill="white"/>
<line x1="24.5" y1="0.5" x2="24.5" y2="23.5" stroke="white" stroke-linecap="round"/>
</svg>
