<svg width="23" height="24" viewBox="0 0 23 24" fill="none" xmlns="http://www.w3.org/2000/svg">
<path d="M20.2868 13.176C20.3341 12.792 20.3696 12.408 20.3696 12C20.3696 11.592 20.3341 11.208 20.2868 10.824L22.7814 8.844C23.006 8.664 23.0651 8.34 22.9233 8.076L20.5587 3.924C20.4169 3.66 20.0976 3.564 19.8376 3.66L16.8937 4.86C16.2789 4.38 15.6169 3.984 14.8957 3.684L14.4464 0.504C14.411 0.216 14.1627 0 13.8671 0H9.13809C8.84252 0 8.59425 0.216 8.55878 0.504L8.10952 3.684C7.38834 3.984 6.72628 4.392 6.1115 4.86L3.16767 3.66C2.89575 3.552 2.58836 3.66 2.44649 3.924L0.081968 8.076C-0.0717259 8.34 -0.000790108 8.664 0.22384 8.844L2.71841 10.824C2.67112 11.208 2.63565 11.604 2.63565 12C2.63565 12.396 2.67112 12.792 2.71841 13.176L0.22384 15.156C-0.000790108 15.336 -0.0599033 15.66 0.081968 15.924L2.44649 20.076C2.58836 20.34 2.90757 20.436 3.16767 20.34L6.1115 19.14C6.72628 19.62 7.38834 20.016 8.10952 20.316L8.55878 23.496C8.59425 23.784 8.84252 24 9.13809 24H13.8671C14.1627 24 14.411 23.784 14.4464 23.496L14.8957 20.316C15.6169 20.016 16.2789 19.608 16.8937 19.14L19.8376 20.34C20.1095 20.448 20.4169 20.34 20.5587 20.076L22.9233 15.924C23.0651 15.66 23.006 15.336 22.7814 15.156L20.2868 13.176ZM11.5026 16.2C9.22085 16.2 7.3647 14.316 7.3647 12C7.3647 9.684 9.22085 7.8 11.5026 7.8C13.7844 7.8 15.6405 9.684 15.6405 12C15.6405 14.316 13.7844 16.2 11.5026 16.2Z" fill="white"/>
</svg>
