<svg width="32" height="32" viewBox="0 0 32 32" fill="none" xmlns="http://www.w3.org/2000/svg">
<path d="M9.59644 25.6C7.83709 25.6 6.41362 27.04 6.41362 28.8C6.41362 30.56 7.83709 32 9.59644 32C11.3558 32 12.7952 30.56 12.7952 28.8C12.7952 27.04 11.3558 25.6 9.59644 25.6ZM0 1.6C0 2.48 0.719733 3.2 1.59941 3.2H3.19881L8.95667 15.344L6.79748 19.248C5.62991 21.392 7.16534 24 9.59644 24H27.1899C28.0696 24 28.7893 23.28 28.7893 22.4C28.7893 21.52 28.0696 20.8 27.1899 20.8H9.59644L11.3558 17.6H23.2714C24.4709 17.6 25.5265 16.944 26.0703 15.952L31.7962 5.568C32.388 4.512 31.6203 3.2 30.4047 3.2H6.7335L5.6619 0.912C5.40599 0.352 4.83021 0 4.22243 0H1.59941C0.719733 0 0 0.72 0 1.6ZM25.5905 25.6C23.8312 25.6 22.4077 27.04 22.4077 28.8C22.4077 30.56 23.8312 32 25.5905 32C27.3498 32 28.7893 30.56 28.7893 28.8C28.7893 27.04 27.3498 25.6 25.5905 25.6Z" fill="white"/>
</svg>
