<svg width="14" height="24" viewBox="0 0 14 24" fill="none" xmlns="http://www.w3.org/2000/svg">
<path d="M13.9996 10.3119L13.8501 2.35999C13.8276 1.16261 12.8665 0.176841 11.6991 0.153755L3.94624 0.000442218C2.06042 -0.0368501 1.16165 2.29322 2.51939 3.68581L5.09553 6.32809C5.09553 6.32809 1.46385 10.0969 0.661686 10.8758C-0.140478 11.6546 0.0114708 13.0761 0.0114708 13.0761L0.0114721 22.0138C0.0114721 23.1108 0.878444 24 1.94791 24C3.01737 24 3.88435 23.1108 3.88435 22.0138L3.88434 13.188L7.83406 9.13693L10.4217 11.791C11.7794 13.1836 14.0359 12.2461 13.9996 10.3119Z" fill="white"/>
</svg>
