<svg width="14" height="24" viewBox="0 0 14 24" fill="none" xmlns="http://www.w3.org/2000/svg">
<path d="M0.000433922 10.3119L0.14991 2.35999C0.172418 1.16261 1.13351 0.176841 2.30092 0.153755L10.0538 0.000442218C11.9396 -0.0368501 12.8383 2.29322 11.4806 3.68581L8.90447 6.32809C8.90447 6.32809 12.5362 10.0969 13.3383 10.8758C14.1405 11.6546 13.9885 13.0761 13.9885 13.0761L13.9885 22.0138C13.9885 23.1108 13.1216 24 12.0521 24C10.9826 24 10.1157 23.1108 10.1157 22.0138L10.1157 13.188L6.16594 9.13693L3.5783 11.791C2.22057 13.1836 -0.0359249 12.2461 0.000433922 10.3119Z" fill="white"/>
</svg>
