<svg width="18" height="20" viewBox="0 0 18 20" fill="none" xmlns="http://www.w3.org/2000/svg">
<path d="M6.7797 9.15922L5.3597 10.5792C4.6797 9.88922 4.0197 8.99922 3.5697 7.63922L5.5097 7.14922C5.8297 8.03922 6.2797 8.64922 6.7797 9.15922ZM7.1497 3.14922L4.3497 0.349219C4.1497 0.149219 3.8397 0.149219 3.6397 0.349219L0.849696 3.14922C0.539696 3.45922 0.759697 3.99922 1.2097 3.99922H3.0197C3.0397 4.80922 3.0997 5.53922 3.2097 6.16922L5.1497 5.67922C5.0797 5.19922 5.0297 4.62922 5.0197 3.99922H6.7997C7.2397 3.99922 7.4597 3.45922 7.1497 3.14922ZM17.1497 3.14922L14.3597 0.359219C14.1597 0.159219 13.8497 0.159219 13.6497 0.359219L10.8597 3.14922C10.5397 3.45922 10.7597 3.99922 11.2097 3.99922H12.9897C12.8897 7.67922 11.7097 8.74922 10.4497 9.87922C9.9497 10.3192 9.4397 10.7992 8.9997 11.4292C8.6597 10.9392 8.2697 10.5492 7.8697 10.1892L6.4597 11.5992C7.3897 12.4492 7.9997 13.1392 7.9997 14.9992V18.9992C7.9997 19.5492 8.4497 19.9992 8.9997 19.9992C9.5497 19.9992 9.9997 19.5492 9.9997 18.9992V14.9992C9.9997 12.9792 10.7097 12.3392 11.7897 11.3692C13.1697 10.1292 14.8697 8.58922 14.9897 3.99922H16.7897C17.2397 3.99922 17.4597 3.45922 17.1497 3.14922Z" fill="white"/>
</svg>
