<svg width="18" height="18" viewBox="0 0 18 18" fill="none" xmlns="http://www.w3.org/2000/svg">
<path d="M16.231 12.2598L13.691 11.9698C13.081 11.8998 12.481 12.1098 12.051 12.5398L10.211 14.3798C7.38102 12.9398 5.06102 10.6298 3.62102 7.78977L5.47102 5.93976C5.90102 5.50977 6.11102 4.90977 6.04102 4.29977L5.75102 1.77977C5.63102 0.769766 4.78102 0.00976562 3.76102 0.00976562H2.03102C0.901018 0.00976562 -0.0389828 0.949766 0.0310172 2.07977C0.561017 10.6198 7.39102 17.4398 15.921 17.9698C17.051 18.0398 17.991 17.0998 17.991 15.9698V14.2398C18.001 13.2298 17.241 12.3798 16.231 12.2598Z" fill="white"/>
</svg>
