<svg width="28" height="32" viewBox="0 0 28 32" fill="none" xmlns="http://www.w3.org/2000/svg">
<path d="M14.0002 0C6.68431 0 0.758789 0.842105 0.758789 6.73684V22.7368C0.758789 25.9874 3.35741 28.6316 6.55189 28.6316L4.64844 30.5684C4.13534 31.0905 4.49948 32 5.24431 32H22.7726C23.5174 32 23.8815 31.0905 23.3519 30.5684L21.4484 28.6316C24.6429 28.6316 27.2415 25.9874 27.2415 22.7368V6.73684C27.2415 0.842105 21.316 0 14.0002 0ZM6.55189 25.2632C5.1781 25.2632 4.06913 24.1347 4.06913 22.7368C4.06913 21.3389 5.1781 20.2105 6.55189 20.2105C7.92569 20.2105 9.03465 21.3389 9.03465 22.7368C9.03465 24.1347 7.92569 25.2632 6.55189 25.2632ZM12.345 15.1579H4.06913V6.73684H12.345V15.1579ZM21.4484 25.2632C20.0747 25.2632 18.9657 24.1347 18.9657 22.7368C18.9657 21.3389 20.0747 20.2105 21.4484 20.2105C22.8222 20.2105 23.9312 21.3389 23.9312 22.7368C23.9312 24.1347 22.8222 25.2632 21.4484 25.2632ZM23.9312 15.1579H15.6553V6.73684H23.9312V15.1579Z" fill="white"/>
</svg>
