<svg width="24" height="24" viewBox="0 0 24 24" fill="none" xmlns="http://www.w3.org/2000/svg">
<path d="M17.7235 0.660628L23.3631 6.43182C24.2123 7.30085 24.2123 8.70465 23.3631 9.57367L17.7235 15.3449C16.3517 16.7487 14 15.746 14 13.7628L14 2.22041C14 0.237259 16.3517 -0.743176 17.7235 0.660628Z" fill="white"/>
<path fill-rule="evenodd" clip-rule="evenodd" d="M19 8C19 6.89543 18.1046 6 17 6H6C2.68629 6 0 8.68629 0 12V22C0 23.1046 0.89543 24 2 24C3.10457 24 4 23.1046 4 22V12C4 10.8954 4.89543 10 6 10H17C18.1046 10 19 9.10457 19 8Z" fill="white"/>
</svg>
