<svg width="24" height="24" viewBox="0 0 24 24" fill="none" xmlns="http://www.w3.org/2000/svg">
<path d="M6.27654 0.660628L0.636908 6.43182C-0.212303 7.30085 -0.212303 8.70465 0.636908 9.57367L6.27654 15.3449C7.64834 16.7487 10 15.746 10 13.7628L10 2.22041C10 0.237259 7.64834 -0.743176 6.27654 0.660628Z" fill="white"/>
<path fill-rule="evenodd" clip-rule="evenodd" d="M5 8C5 6.89543 5.89543 6 7 6H18C21.3137 6 24 8.68629 24 12V22C24 23.1046 23.1046 24 22 24C20.8954 24 20 23.1046 20 22V12C20 10.8954 19.1046 10 18 10H7C5.89543 10 5 9.10457 5 8Z" fill="white"/>
</svg>
