<svg width="24" height="24" viewBox="0 0 24 24" fill="none" xmlns="http://www.w3.org/2000/svg">
<path d="M23.2296 5.26367H17.058C16.8534 5.26367 16.6571 5.3495 16.5125 5.50228C16.3678 5.65506 16.2865 5.86227 16.2865 6.07833C16.2865 6.29438 16.3678 6.50159 16.5125 6.65437C16.6571 6.80715 16.8534 6.89298 17.058 6.89298V9.33694H12.4293C12.2247 9.33694 12.0284 9.42277 11.8838 9.57554C11.7391 9.72832 11.6578 9.93553 11.6578 10.1516C11.6578 10.3677 11.7391 10.5749 11.8838 10.7276C12.0284 10.8804 12.2247 10.9662 12.4293 10.9662V13.4102H7.80055C7.59594 13.4102 7.39972 13.496 7.25505 13.6488C7.11037 13.8016 7.0291 14.0088 7.0291 14.2249C7.0291 14.4409 7.11037 14.6481 7.25505 14.8009C7.39972 14.9537 7.59594 15.0395 7.80055 15.0395V17.4835H3.17184C2.96724 17.4835 2.77102 17.5693 2.62634 17.7221C2.48167 17.8749 2.40039 18.0821 2.40039 18.2981C2.40039 18.5142 2.48167 18.7214 2.62634 18.8742C2.77102 19.0269 2.96724 19.1128 3.17184 19.1128V23.186C3.17184 23.4021 3.25312 23.6093 3.39779 23.7621C3.54247 23.9149 3.73869 24.0007 3.94329 24.0007H23.2296C23.4342 24.0007 23.6304 23.9149 23.7751 23.7621C23.9197 23.6093 24.001 23.4021 24.001 23.186V6.07833C24.001 5.86227 23.9197 5.65506 23.7751 5.50228C23.6304 5.3495 23.4342 5.26367 23.2296 5.26367Z" fill="white"/>
<path fill-rule="evenodd" clip-rule="evenodd" d="M14.6274 3.29988L14.5091 6.72989C14.4803 7.56421 13.4909 7.88815 12.9404 7.24036L11.7806 5.87544L3.17337 13.6054C2.89261 13.8576 2.46618 13.828 2.22092 13.5393C1.97565 13.2507 2.00443 12.8123 2.28519 12.5602L10.8924 4.83017L9.73677 3.47009C9.18633 2.8223 9.62532 1.85057 10.4334 1.93334L13.7554 2.2736C14.2556 2.32484 14.6453 2.78339 14.6274 3.29988Z" fill="white"/>
</svg>
