<svg width="24" height="24" viewBox="0 0 24 24" fill="none" xmlns="http://www.w3.org/2000/svg">
<path fill-rule="evenodd" clip-rule="evenodd" d="M9 4C11.7614 4 14 6.23853 14 9H10.2204C8.23724 9 7.25684 11.3156 8.66064 12.6663L14.4318 18.2191C15.3008 19.0552 16.7047 19.0552 17.5737 18.2191L23.3448 12.6663C24.7487 11.3156 23.746 9 21.7628 9H18C18 4.02942 13.9706 0 9 0C4.36743 0 0.552368 3.5 0.0549316 8H0V9V22C0 23.1046 0.895447 24 2 24C3.10455 24 4 23.1046 4 22V9C4 6.23853 6.23859 4 9 4Z" fill="white"/>
</svg>
