<svg width="24" height="24" viewBox="0 0 24 24" fill="none" xmlns="http://www.w3.org/2000/svg">
<path fill-rule="evenodd" clip-rule="evenodd" d="M15 4C12.2386 4 10 6.23858 10 9H6C6 4.02944 10.0294 0 15 0C19.6326 0 23.4476 3.50005 23.9451 8H24V9V22C24 23.1046 23.1046 24 22 24C20.8954 24 20 23.1046 20 22V9C20 6.23858 17.7614 4 15 4ZM9.56818 18.2191L15.3394 12.6662C16.7432 11.3155 15.7627 9.00004 13.7796 9.00004L2.2372 9.00004C0.254049 9.00004 -0.748669 11.3155 0.655134 12.6662L6.42633 18.2191C7.29535 19.0552 8.69915 19.0552 9.56818 18.2191Z" fill="white"/>
</svg>
