<svg width="16" height="16" viewBox="0 0 16 16" fill="none" xmlns="http://www.w3.org/2000/svg">
<path fill-rule="evenodd" clip-rule="evenodd" d="M16 8C16 12.4183 12.4183 16 8 16C3.58172 16 0 12.4183 0 8C0 3.58172 3.58172 0 8 0C12.4183 0 16 3.58172 16 8ZM4.44075 4.35442C4.83127 3.96389 5.46444 3.96389 5.85496 4.35442L8.07825 6.5777L10.3015 4.35444C10.692 3.96392 11.3252 3.96392 11.7157 4.35444C12.1062 4.74497 12.1062 5.37813 11.7157 5.76866L9.49246 7.99191L11.68 10.1794C12.0705 10.57 12.0705 11.2031 11.68 11.5936C11.2895 11.9842 10.6563 11.9842 10.2658 11.5936L8.07825 9.40613L5.8907 11.5937C5.50018 11.9842 4.86701 11.9842 4.47649 11.5937C4.08596 11.2031 4.08596 10.57 4.47649 10.1795L6.66403 7.99191L4.44075 5.76863C4.05023 5.37811 4.05023 4.74494 4.44075 4.35442Z" fill="#FF8080"/>
</svg>
