<svg width="16" height="16" viewBox="0 0 16 16" fill="none" xmlns="http://www.w3.org/2000/svg">
<path fill-rule="evenodd" clip-rule="evenodd" d="M8 16C12.4183 16 16 12.4183 16 8C16 3.58172 12.4183 0 8 0C3.58172 0 0 3.58172 0 8C0 12.4183 3.58172 16 8 16ZM4.70711 8.29289C4.31658 7.90237 3.68342 7.90237 3.29289 8.29289C2.90237 8.68342 2.90237 9.31658 3.29289 9.70711L5.46861 11.8828C5.85913 12.2733 6.4923 12.2733 6.88282 11.8828L11.8828 6.88282C12.2733 6.4923 12.2733 5.85913 11.8828 5.46861C11.4923 5.07808 10.8591 5.07808 10.4686 5.46861L6.17571 9.7615L4.70711 8.29289Z" fill="#2FC8AD"/>
</svg>
