<svg width="88" height="89" viewBox="0 0 88 89" fill="none" xmlns="http://www.w3.org/2000/svg">
<path d="M44.4689 49.9798C62.7619 49.7048 78.7046 39.7456 87.3936 24.9963C78.7046 10.247 62.7619 0.28668 44.4689 0.0116898C44.2134 0.00445324 43.9551 0 43.6968 0C43.439 0 43.1808 0.0050099 42.9247 0.0116898C24.6322 0.287237 8.68836 10.247 0 24.9963C8.68836 39.7456 24.6322 49.7048 42.9247 49.9798C43.1808 49.9876 43.439 49.9915 43.6968 49.9915C43.9551 49.9921 44.2134 49.9876 44.4689 49.9798ZM32.8096 24.8349C32.8096 18.8224 37.6848 13.9477 43.6968 13.9477C49.7093 13.9477 54.584 18.8224 54.584 24.8349C54.584 30.8479 49.7093 35.7226 43.6968 35.7226C37.6848 35.7226 32.8096 30.8479 32.8096 24.8349ZM68.6925 24.9963C68.6925 19.5004 66.9179 14.4197 63.9114 10.2927C64.7653 10.7207 65.6081 11.1755 66.4353 11.6587C72.1494 14.997 77.0764 19.5689 80.84 24.9963C77.0764 30.4226 72.1494 34.9945 66.4353 38.3328C65.6081 38.8165 64.7653 39.2713 63.9114 39.6988C66.9179 35.5723 68.6925 30.4922 68.6925 24.9963Z" fill="#2FC8AD"/>
<path d="M12.7486 56.304C12.969 56.304 13.1655 56.3786 13.3364 56.5273C13.5073 56.6759 13.5931 56.9108 13.5931 57.2314C13.5931 57.5521 13.5073 57.7864 13.3364 57.9356C13.1655 58.0848 12.969 58.1588 12.7486 58.1588C12.5053 58.1588 12.3016 58.0842 12.1357 57.9356C11.9704 57.7864 11.8875 57.5521 11.8875 57.2314C11.8875 56.9108 11.9704 56.6764 12.1357 56.5273C12.3016 56.3786 12.5059 56.304 12.7486 56.304ZM13.4611 59.6334V68.511H12.0038V59.6334H13.4611Z" fill="#2FC8AD"/>
<path d="M20.5502 59.4675C21.6101 59.4675 22.4106 59.7275 22.9517 60.2458C23.4927 60.7651 23.7633 61.5934 23.7633 62.7301V68.5111H22.3226V62.8298C22.3226 61.4053 21.6602 60.6933 20.3348 60.6933C19.3517 60.6933 18.6732 60.9694 18.2974 61.5211C17.9217 62.0733 17.7341 62.8687 17.7341 63.9064V68.5105H16.2767V59.6329H17.4524L17.6678 60.8419H17.7508C18.038 60.3782 18.4355 60.0331 18.9437 59.8071C19.4514 59.5811 19.9869 59.4675 20.5502 59.4675Z" fill="#2FC8AD"/>
<path d="M30.0736 68.6769C29.2787 68.6769 28.5773 68.5166 27.9699 68.1965C27.3626 67.8765 26.885 67.3794 26.5371 66.7058C26.1892 66.0322 26.0155 65.1711 26.0155 64.1218C26.0155 63.0285 26.1947 62.1395 26.5538 61.4548C26.9128 60.7707 27.4066 60.268 28.0362 59.9479C28.6658 59.6279 29.3777 59.4675 30.1726 59.4675C30.6141 59.4675 31.0477 59.5149 31.4725 59.6084C31.8977 59.7024 32.2429 59.8154 32.5078 59.9479L32.0608 61.157C31.7959 61.0574 31.4864 60.9638 31.1329 60.8753C30.7794 60.7874 30.4482 60.7428 30.1392 60.7428C28.3947 60.7428 27.5224 61.864 27.5224 64.1051C27.5224 65.1767 27.735 65.9961 28.1603 66.565C28.585 67.1333 29.2174 67.4178 30.0569 67.4178C30.5317 67.4178 30.957 67.3682 31.3322 67.2686C31.7074 67.1689 32.0503 67.0481 32.3592 66.9045V68.196C32.0608 68.3507 31.7324 68.4693 31.3734 68.5522C31.0149 68.6357 30.5812 68.6769 30.0736 68.6769Z" fill="#2FC8AD"/>
<path d="M35.9203 68.5111H34.463V55.9233H35.9203V68.5111Z" fill="#2FC8AD"/>
<path d="M46.1567 59.6334V68.5111H44.9637L44.7483 67.3354H44.6821C44.3948 67.7991 43.9974 68.1381 43.4897 68.3541C42.9815 68.5695 42.4404 68.6769 41.8665 68.6769C40.7954 68.6769 39.9888 68.4198 39.4483 67.9065C38.9073 67.3927 38.6367 66.5728 38.6367 65.4466V59.6334H40.1108V65.3475C40.1108 66.7615 40.7676 67.4679 42.0819 67.4679C43.0644 67.4679 43.7463 67.1923 44.1276 66.6401C44.5084 66.0885 44.6988 65.293 44.6988 64.2554V59.634H46.1567V59.6334Z" fill="#2FC8AD"/>
<path d="M53.2457 59.4675C54.3055 59.4675 55.106 59.7275 55.6471 60.2458C56.1882 60.7651 56.4587 61.5934 56.4587 62.7301V68.5111H55.0181V62.8298C55.0181 61.4053 54.3556 60.6933 53.0302 60.6933C52.0472 60.6933 51.3686 60.9694 50.9929 61.5211C50.6171 62.0733 50.4295 62.8687 50.4295 63.9064V68.5105H48.9722V59.6329H50.1478L50.3633 60.8419H50.4462C50.7334 60.3782 51.1309 60.0331 51.6391 59.8071C52.1468 59.5811 52.6823 59.4675 53.2457 59.4675Z" fill="#2FC8AD"/>
<path d="M62.5705 59.4842C63.6526 59.4842 64.4531 59.7219 64.9719 60.1962C65.4907 60.671 65.7501 61.4275 65.7501 62.4652V68.5105H64.6902L64.4086 67.2513H64.3423C63.956 67.7373 63.5474 68.0963 63.1166 68.3285C62.6863 68.56 62.1006 68.6764 61.3608 68.6764C60.5548 68.6764 59.8868 68.4637 59.3563 68.0384C58.8258 67.6132 58.5614 66.9479 58.5614 66.0423C58.5614 65.1588 58.9093 64.4769 59.6051 63.9965C60.301 63.5167 61.372 63.2539 62.8182 63.21L64.3256 63.1604V62.6305C64.3256 61.8907 64.1653 61.3769 63.8452 61.0896C63.5246 60.8024 63.072 60.6593 62.487 60.6593C62.0233 60.6593 61.5818 60.7284 61.1621 60.8664C60.7424 61.0045 60.3505 61.1615 59.9865 61.3385L59.5389 60.2452C59.9252 60.0353 60.3839 59.8561 60.9138 59.7069C61.4438 59.5577 61.9966 59.4842 62.5705 59.4842ZM64.3095 64.1713L63.0008 64.2214C61.8969 64.2654 61.1321 64.4419 60.7068 64.7514C60.2815 65.0609 60.0688 65.4967 60.0688 66.0601C60.0688 66.5572 60.2203 66.9212 60.5242 67.1534C60.8276 67.3849 61.2172 67.5007 61.6921 67.5007C62.4319 67.5007 63.0531 67.2942 63.5558 66.88C64.0579 66.4659 64.3095 65.828 64.3095 64.9668V64.1713Z" fill="#2FC8AD"/>
<path d="M70.4544 68.5111L67.0922 59.6334H68.6491L70.5373 64.8672C70.6258 65.1104 70.7194 65.3804 70.819 65.6788C70.9187 65.9766 71.0066 66.2644 71.084 66.5399C71.1614 66.816 71.2165 67.0426 71.2493 67.219H71.3156C71.349 67.0431 71.4091 66.8132 71.4976 66.5321C71.5861 66.251 71.6802 65.9638 71.7792 65.671C71.8789 65.3787 71.9724 65.1104 72.0609 64.8677L73.9491 59.634H75.5061L72.1272 68.5116H70.4544V68.5111Z" fill="#2FC8AD"/>
<path d="M22.6289 79.1772C22.7502 79.1772 22.8938 79.1834 23.0592 79.1939C23.225 79.2051 23.3575 79.2218 23.4566 79.2435L23.2746 81.5625C23.1861 81.5403 23.0697 81.5213 22.9267 81.5046C22.7831 81.4885 22.6561 81.4801 22.5454 81.4801C22.1256 81.4801 21.7226 81.5547 21.3363 81.7034C20.9494 81.8526 20.6377 82.0925 20.4005 82.4237C20.1629 82.7555 20.0443 83.208 20.0443 83.7819V88.3861H17.576V79.3426H19.4475L19.8122 80.8662H19.9279C20.1929 80.4025 20.5575 80.005 21.0212 79.6732C21.486 79.3431 22.0215 79.1772 22.6289 79.1772Z" fill="#2FC8AD"/>
<path d="M32.981 83.8487C32.981 85.3501 32.5863 86.5096 31.7969 87.3268C31.0076 88.1439 29.9338 88.5525 28.5755 88.5525C27.7361 88.5525 26.9879 88.3705 26.3311 88.0059C25.6737 87.6418 25.1576 87.1091 24.7825 86.4077C24.4067 85.7063 24.2191 84.8535 24.2191 83.8487C24.2191 82.3469 24.611 81.1929 25.3953 80.3869C26.1791 79.5808 27.2557 79.1772 28.6251 79.1772C29.4751 79.1772 30.226 79.3598 30.8773 79.7239C31.5286 80.0879 32.0424 80.6179 32.4176 81.3137C32.7928 82.0095 32.981 82.8545 32.981 83.8487ZM26.7363 83.8487C26.7363 84.7427 26.8827 85.4191 27.1755 85.8778C27.4678 86.3359 27.9454 86.5647 28.6084 86.5647C29.2597 86.5647 29.7317 86.3359 30.0245 85.8778C30.3168 85.4196 30.4637 84.7433 30.4637 83.8487C30.4637 82.9542 30.3173 82.2829 30.0245 81.8364C29.7317 81.3889 29.2541 81.1656 28.5917 81.1656C27.9398 81.1656 27.4678 81.3889 27.1755 81.8364C26.8827 82.2829 26.7363 82.9536 26.7363 83.8487Z" fill="#2FC8AD"/>
<path d="M43.3161 79.3431V88.3866H41.4279L41.0967 87.2271H40.9642C40.6769 87.6908 40.2823 88.0276 39.7802 88.2375C39.2775 88.4468 38.7448 88.552 38.1814 88.552C37.2095 88.552 36.4313 88.2892 35.8462 87.7648C35.2606 87.241 34.9684 86.3988 34.9684 85.2393V79.3426H37.4366V84.6264C37.4366 85.2777 37.5524 85.7664 37.7845 86.0921C38.0167 86.4177 38.3863 86.5808 38.894 86.5808C39.6449 86.5808 40.1581 86.3242 40.4348 85.8104C40.7109 85.2972 40.849 84.5601 40.849 83.5993V79.3426H43.3161V79.3431Z" fill="#2FC8AD"/>
<path d="M49.7093 86.5814C49.9854 86.5814 50.2503 86.5563 50.5042 86.5068C50.758 86.4567 51.0118 86.3882 51.2662 86.2997V88.1384C51.0013 88.2603 50.6728 88.3594 50.2804 88.4362C49.8885 88.5136 49.4604 88.5525 48.9967 88.5525C48.4557 88.5525 47.9725 88.464 47.5472 88.287C47.1219 88.1111 46.7851 87.8072 46.5368 87.3757C46.2886 86.9454 46.1644 86.3381 46.1644 85.5543V81.1985H44.9888V80.1547L46.3465 79.327L47.059 77.4221H48.6327V79.3431H51.1666V81.1985H48.6327V85.5543C48.6327 85.8967 48.7318 86.1533 48.931 86.3248C49.1298 86.4962 49.3892 86.5814 49.7093 86.5814Z" fill="#2FC8AD"/>
<path d="M56.815 79.1772C58.0625 79.1772 59.0512 79.5335 59.7798 80.246C60.5085 80.958 60.8731 81.9717 60.8731 83.2854V84.4778H55.0426C55.0649 85.1736 55.2714 85.7202 55.6639 86.1177C56.0558 86.5151 56.5996 86.7139 57.2954 86.7139C57.8694 86.7139 58.3971 86.656 58.8775 86.5396C59.3579 86.4233 59.8516 86.2446 60.3599 86.0013V87.9057C59.9067 88.1267 59.4375 88.2892 58.9521 88.3944C58.4661 88.4991 57.8755 88.552 57.1797 88.552C56.274 88.552 55.4735 88.3833 54.7782 88.0465C54.0824 87.7103 53.5358 87.2015 53.1383 86.5229C52.7408 85.8438 52.5421 84.9804 52.5421 83.9311C52.5421 82.8818 52.7214 82.0045 53.0804 81.2976C53.4389 80.5912 53.9388 80.0612 54.5789 79.7077C55.2191 79.3548 55.9645 79.1772 56.815 79.1772ZM56.8317 80.9335C56.3458 80.9335 55.9483 81.0883 55.6388 81.3972C55.3299 81.7067 55.1473 82.1871 55.0927 82.8384H58.5541C58.5429 82.2973 58.3971 81.8448 58.1154 81.4807C57.8337 81.1155 57.4057 80.9335 56.8317 80.9335Z" fill="#2FC8AD"/>
<path d="M69.1874 85.7036C69.1874 86.6198 68.8645 87.324 68.2182 87.8155C67.5725 88.307 66.6089 88.5525 65.3281 88.5525C64.6985 88.5525 64.1574 88.5113 63.7048 88.4278C63.2523 88.3455 62.7992 88.2096 62.3466 88.022V85.9847C62.8326 86.2057 63.3569 86.3882 63.9203 86.5313C64.4836 86.6744 64.9801 86.7467 65.411 86.7467C65.8858 86.7467 66.2276 86.6749 66.438 86.5313C66.6473 86.3877 66.7526 86.1995 66.7526 85.968C66.7526 85.8132 66.7114 85.6757 66.6284 85.5538C66.546 85.4324 66.3662 85.2944 66.0901 85.1397C65.814 84.9855 65.3832 84.7862 64.7981 84.5435C64.2236 84.3008 63.7572 84.0608 63.3987 83.8231C63.0396 83.5855 62.7719 83.2988 62.5954 82.9614C62.419 82.6252 62.3304 82.2027 62.3304 81.695C62.3304 80.8556 62.6561 80.226 63.3074 79.8063C63.9587 79.3866 64.826 79.1767 65.9081 79.1767C66.4714 79.1767 67.007 79.2324 67.5146 79.3426C68.0223 79.4528 68.5467 79.6354 69.0883 79.8892L68.3429 81.6616C67.9015 81.474 67.4818 81.3165 67.0843 81.189C66.6869 81.0621 66.2838 80.9986 65.8753 80.9986C65.1466 80.9986 64.782 81.1974 64.782 81.5948C64.782 81.7384 64.8287 81.8682 64.9228 81.9839C65.0163 82.0997 65.1989 82.2244 65.4695 82.3563C65.74 82.4888 66.1402 82.6658 66.6702 82.8863C67.189 83.0961 67.636 83.3149 68.0117 83.5409C68.3869 83.7669 68.6769 84.0519 68.8812 84.3937C69.085 84.7377 69.1874 85.1736 69.1874 85.7036Z" fill="#2FC8AD"/>
</svg>
