<svg width="48" height="48" viewBox="0 0 48 48" fill="none" xmlns="http://www.w3.org/2000/svg">
<circle cx="24" cy="24" r="24" fill="#16171C"/>
<path d="M15 22.461V26.461C15 27.011 15.45 27.461 16 27.461H19L22.29 30.751C22.92 31.381 24 30.931 24 30.041V18.871C24 17.981 22.92 17.531 22.29 18.161L19 21.461H16C15.45 21.461 15 21.911 15 22.461ZM28.5 24.461C28.5 22.691 27.48 21.171 26 20.431V28.481C27.48 27.751 28.5 26.231 28.5 24.461ZM26 16.911V17.111C26 17.491 26.25 17.821 26.6 17.961C29.18 18.991 31 21.521 31 24.461C31 27.401 29.18 29.931 26.6 30.961C26.24 31.101 26 31.431 26 31.811V32.011C26 32.641 26.63 33.081 27.21 32.861C30.6 31.571 33 28.301 33 24.461C33 20.621 30.6 17.351 27.21 16.061C26.63 15.831 26 16.281 26 16.911Z" fill="white"/>
</svg>
