<svg width="24" height="24" viewBox="0 0 24 24" fill="none" xmlns="http://www.w3.org/2000/svg">
<path d="M3.63 4.2925C3.24 4.6825 3.24 5.3125 3.63 5.7025L7.29 9.3625L7 9.6625H4C3.45 9.6625 3 10.1125 3 10.6625V14.6625C3 15.2125 3.45 15.6625 4 15.6625H7L10.29 18.9525C10.92 19.5825 12 19.1325 12 18.2425V14.0725L16.18 18.2525C15.69 18.6225 15.16 18.9325 14.58 19.1625C14.22 19.3125 14 19.6925 14 20.0825C14 20.8025 14.73 21.2625 15.39 20.9925C16.19 20.6625 16.94 20.2225 17.61 19.6825L18.95 21.0225C19.34 21.4125 19.97 21.4125 20.36 21.0225C20.75 20.6325 20.75 20.0025 20.36 19.6125L5.05 4.2925C4.66 3.9025 4.03 3.9025 3.63 4.2925ZM19 12.6625C19 13.4825 18.85 14.2725 18.59 15.0025L20.12 16.5325C20.68 15.3625 21 14.0525 21 12.6625C21 8.8325 18.6 5.5525 15.22 4.2625C14.63 4.0325 14 4.4925 14 5.1225V5.3125C14 5.6925 14.25 6.0225 14.61 6.1625C17.18 7.2025 19 9.7225 19 12.6625ZM10.29 6.3725L10.12 6.5425L12 8.4225V7.0725C12 6.1825 10.92 5.7425 10.29 6.3725ZM16.5 12.6625C16.5 10.8925 15.48 9.3725 14 8.6325V10.4225L16.48 12.9025C16.49 12.8225 16.5 12.7425 16.5 12.6625Z" fill="white"/>
</svg>
