<svg width="25" height="37" viewBox="0 0 25 37" fill="none" xmlns="http://www.w3.org/2000/svg">
<path d="M14.1176 7.68633C16.1882 7.68633 17.8823 6.03162 17.8823 4.00918C17.8823 1.98675 16.1882 0.332031 14.1176 0.332031C12.047 0.332031 10.3529 1.98675 10.3529 4.00918C10.3529 6.03162 12.047 7.68633 14.1176 7.68633ZM4.69811 14.8699C5.7637 14.4652 6.85727 15.3939 6.63048 16.5109L2.33412 37.6735C2.08941 38.795 2.99294 39.8614 4.17882 39.8614H4.32941C5.21411 39.8614 5.96705 39.2731 6.17411 38.4273L8.2577 29.3572C8.68698 27.4884 10.9782 26.785 12.3821 28.091C12.8887 28.5623 13.1765 29.223 13.1765 29.9149V38.0228C13.1765 39.034 14.0235 39.8614 15.0588 39.8614C16.0941 39.8614 16.9412 39.034 16.9412 38.0228V27.6533C16.9412 26.6421 16.527 25.686 15.7741 24.9873L13.8903 23.2343C13.33 22.713 13.0819 21.9375 13.2354 21.1878C13.5985 19.4147 15.9503 18.7352 17.523 19.631C18.9709 20.4557 20.5981 21.0388 22.3247 21.3102C23.4541 21.4757 24.4706 20.5931 24.4706 19.4716C24.4706 18.5707 23.7929 17.8169 22.8706 17.6698C20.0094 17.2102 17.6376 15.5554 16.3765 13.3859L14.4941 10.4442C13.44 8.80787 11.3318 8.14598 9.50587 8.89979L2.29647 11.8783C0.903528 12.4666 0 13.7904 0 15.2797V19.6371C0 20.6483 0.847058 21.4757 1.88235 21.4757C2.91764 21.4757 3.7647 20.6483 3.7647 19.6371V16.223C3.7647 15.6219 4.13621 15.0834 4.69811 14.8699Z" fill="#16171C"/>
</svg>
