<svg width="24" height="16" viewBox="0 0 24 16" fill="none" xmlns="http://www.w3.org/2000/svg">
<path d="M1.365 9.43893L19.342 9.43893L15.4108 13.5624C14.8784 14.1208 14.8784 15.0228 15.4108 15.5812C15.9431 16.1396 16.8031 16.1396 17.3354 15.5812L23.6007 9.00939C24.1331 8.451 24.1331 7.54899 23.6007 6.9906L17.3354 0.418791C16.8031 -0.139598 15.9431 -0.139598 15.4108 0.418792C14.8784 0.977181 14.8784 1.87919 15.4108 2.43758L19.342 6.57539L1.365 6.57539C0.614247 6.57539 1.13975e-06 7.21969 1.20859e-06 8.00716C1.27744e-06 8.79463 0.614248 9.43893 1.365 9.43893Z" fill="white"/>
</svg>
