<svg width="79" height="37" viewBox="0 0 79 37" fill="none" xmlns="http://www.w3.org/2000/svg">
<path d="M11.1999 10.9388C12.9671 10.9388 14.3997 9.50617 14.3997 7.73893C14.3997 5.97169 12.9671 4.53906 11.1999 4.53906C9.43263 4.53906 8 5.97169 8 7.73893C8 9.50617 9.43263 10.9388 11.1999 10.9388Z" fill="white"/>
<path d="M22.3991 22.1401V18.9402C19.9352 18.9722 17.4553 17.7403 15.8873 16.0124L13.8234 13.7245C13.5514 13.4205 13.2155 13.1805 12.8475 13.0045C12.8315 13.0045 12.8315 12.9885 12.8155 12.9885H12.7995C12.2395 12.6685 11.5995 12.5085 10.8956 12.5725C9.21562 12.7165 7.99967 14.2044 7.99967 15.8844V25.34C7.99967 27.0999 9.43961 28.5398 11.1995 28.5398H19.1992V36.5395H22.3991V27.7399C22.3991 25.9799 20.9591 24.54 19.1992 24.54H14.3994V19.0202C16.4633 20.7322 19.5992 22.1241 22.3991 22.1401ZM12.5275 30.1398C11.8715 31.9957 10.0956 33.3396 7.99967 33.3396C5.34378 33.3396 3.19987 31.1957 3.19987 28.5398C3.19987 26.4439 4.54381 24.684 6.39974 24.012V20.7002C2.75189 21.4361 0 24.668 0 28.5398C0 32.9557 3.58385 36.5395 7.99967 36.5395C11.8715 36.5395 15.1034 33.7876 15.8393 30.1398H12.5275Z" fill="white"/>
<path fill-rule="evenodd" clip-rule="evenodd" d="M44.561 0.37965C45.0483 0.588503 45.2741 1.15287 45.0652 1.64019L28.5415 40.1954C28.3327 40.6828 27.7683 40.9085 27.281 40.6996C26.7937 40.4908 26.5679 39.9264 26.7768 39.4391L43.3004 0.883867C43.5093 0.396542 44.0737 0.170797 44.561 0.37965Z" fill="white"/>
<path d="M55.9569 33.1706C55.9569 35.0233 57.4371 36.5391 59.2463 36.5391C61.0554 36.5391 62.5356 35.0233 62.5356 33.1706C62.5356 31.318 61.0554 29.8022 59.2463 29.8022C57.4371 29.8022 55.9569 31.318 55.9569 33.1706ZM75.6931 29.8022C77.5022 29.8022 78.9824 31.318 78.9824 33.1706C78.9824 35.0233 77.5022 36.5391 75.6931 36.5391C73.8839 36.5391 72.4037 35.0233 72.4037 33.1706C72.4037 31.318 73.8839 29.8022 75.6931 29.8022ZM62.0422 6.39169C64.131 5.21275 66.5486 4.53906 69.1143 4.53906C71.5978 4.53906 73.9333 5.17906 75.9727 6.2738C76.943 6.7959 77.091 8.16012 76.3345 8.93485L69.7722 15.6549L62.0422 6.39169ZM49.4768 9.30538C49.9538 6.5938 52.1741 4.53906 54.8878 4.53906C57.618 4.53906 59.0653 6.67801 60.1179 7.95801L74.5253 25.2717C75.4299 26.3664 74.6734 28.0506 73.2754 28.0506H60.8909C59.0818 28.0506 57.6016 26.5349 57.6016 24.6822V10.0464C56.6477 8.90117 56.0062 7.90748 54.8878 7.90748C53.7695 7.90748 52.8813 8.78327 52.7004 9.94538C52.536 10.7033 51.8781 11.2759 51.0886 11.2759C50.1841 11.2759 49.444 10.518 49.444 9.59169C49.444 9.49064 49.4604 9.40643 49.4768 9.30538Z" fill="white"/>
</svg>
